<svg width="127" height="81" viewBox="0 0 127 81" fill="none" xmlns="http://www.w3.org/2000/svg">
<path fill-rule="evenodd" clip-rule="evenodd" d="M85.179 80.7005C85.2171 80.7005 85.255 80.7 85.2928 80.699H122.464C125.521 80.699 127.448 77.4093 125.953 74.7429L85.5887 2.74461C84.0606 0.0189997 80.1374 0.0195202 78.61 2.74554L63.4612 29.7832L48.3033 2.74614C46.7752 0.0205256 42.852 0.0210461 41.3246 2.74707L0.984954 74.7454C-0.508958 77.4117 1.41823 80.7005 4.47455 80.7005H85.179ZM109.47 72.9736L87.6721 72.9678L67.7946 37.5125L78.604 18.2165C80.1309 15.4906 84.0536 15.4894 85.5823 18.2143L112.96 67.0166C114.456 69.6833 112.528 72.9744 109.47 72.9736ZM28.411 72.9635C31.4032 72.8818 33.2628 69.6361 31.7813 67.0034L22.8651 51.1596L13.9884 67.0057C12.4949 69.6717 14.4213 72.9598 17.477 72.9606L28.411 72.9635Z" fill="black"/>
</svg>
